HIERARCHY
ROOT Hips
{
	OFFSET 0.000000 0.000000 0.000000
	CHANNELS 6 Xposition Yposition Zposition Zrotation Yrotation Xrotation 
	JOINT LeftUpLeg_virtual
	{
		OFFSET 0.000000 0.000000 0.000000
		CHANNELS 3 Zrotation Yrotation Xrotation
		JOINT LeftUpLeg
		{
			OFFSET 8.479694 -4.795517 -0.379053
			CHANNELS 3 Zrotation Yrotation Xrotation
			JOINT LeftLeg
			{
				OFFSET 0.485052 -32.551468 0.112863
				CHANNELS 3 Zrotation Yrotation Xrotation
				JOINT LeftFoot
				{
					OFFSET 0.438033 -32.635670 -3.012641
					CHANNELS 3 Zrotation Yrotation Xrotation
					JOINT LeftToeBase
					{
						OFFSET 0.970169 -13.225353 11.864223
						CHANNELS 3 Zrotation Yrotation Xrotation
						End Site
						{
							OFFSET 0.000000 0.000000 0.000000
						}
					}
				}
			}
		}
	}
	JOINT RightUpLeg_virtual
	{
		OFFSET 0.000000 0.000000 0.000000
		CHANNELS 3 Zrotation Yrotation Xrotation
		JOINT RightUpLeg
		{
			OFFSET -8.479694 -4.795517 -0.379053
			CHANNELS 3 Zrotation Yrotation Xrotation
			JOINT RightLeg
			{
				OFFSET -0.484100 -32.551483 0.112903
				CHANNELS 3 Zrotation Yrotation Xrotation
				JOINT RightFoot
				{
					OFFSET -0.438985 -32.635651 -3.012681
					CHANNELS 3 Zrotation Yrotation Xrotation
					JOINT RightToeBase
					{
						OFFSET -0.970169 -13.225354 11.864223
						CHANNELS 3 Zrotation Yrotation Xrotation
						End Site
						{
							OFFSET 0.000000 0.000000 0.000000
						}
					}
				}
			}
		}
	}
	JOINT Spine_virtual
	{
		OFFSET 0.000000 0.000000 0.000000
		CHANNELS 3 Zrotation Yrotation Xrotation
		JOINT Spine
		{
			OFFSET 0.000000 7.722015 1.166203
			CHANNELS 3 Zrotation Yrotation Xrotation
			JOINT Spine1
			{
				OFFSET 0.000000 12.024086 0.248766
				CHANNELS 3 Zrotation Yrotation Xrotation
				JOINT Spine2
				{
					OFFSET -0.000000 11.503036 -0.491240
					CHANNELS 3 Zrotation Yrotation Xrotation
					JOINT Neck_virtual
					{
						OFFSET 0.000000 0.000000 0.000000
						CHANNELS 3 Zrotation Yrotation Xrotation
						JOINT Neck
						{
							OFFSET 0.000000 18.430687 -3.123054
							CHANNELS 3 Zrotation Yrotation Xrotation
							JOINT Head
							{
								OFFSET -0.000000 9.051071 1.034021
								CHANNELS 3 Zrotation Yrotation Xrotation
								End Site
								{
									OFFSET 0.000000 0.000000 0.000000
								}
							}
						}
					}
					JOINT LeftShoulder_virtual
					{
						OFFSET 0.000000 0.000000 0.000000
						CHANNELS 3 Zrotation Yrotation Xrotation
						JOINT LeftShoulder
						{
							OFFSET 6.197824 13.665230 -4.064723
							CHANNELS 3 Zrotation Yrotation Xrotation
							JOINT LeftArm
							{
								OFFSET 7.778132 -0.187073 -1.709282
								CHANNELS 3 Zrotation Yrotation Xrotation
								JOINT LeftForeArm
								{
									OFFSET 21.954697 0.000000 -2.041093
									CHANNELS 3 Zrotation Yrotation Xrotation
									JOINT LeftHand
									{
										OFFSET 22.992908 0.000000 -0.870901
										CHANNELS 3 Zrotation Yrotation Xrotation
										End Site
										{
											OFFSET 0.000000 0.000000 0.000000
										}
									}
								}
							}
						}
					}
					JOINT RightShoulder_virtual
					{
						OFFSET 0.000000 0.000000 0.000000
						CHANNELS 3 Zrotation Yrotation Xrotation
						JOINT RightShoulder
						{
							OFFSET -6.197824 13.665230 -4.064723
							CHANNELS 3 Zrotation Yrotation Xrotation
							JOINT RightArm
							{
								OFFSET -7.778132 -0.187073 -1.709282
								CHANNELS 3 Zrotation Yrotation Xrotation
								JOINT RightForeArm
								{
									OFFSET -21.954697 0.000000 -2.041093
									CHANNELS 3 Zrotation Yrotation Xrotation
									JOINT RightHand
									{
										OFFSET -22.992908 0.000000 -0.870901
										CHANNELS 3 Zrotation Yrotation Xrotation
										End Site
										{
											OFFSET 0.000000 0.000000 0.000000
										}
									}
								}
							}
						}
					}
				}
			}
		}
	}
}
MOTION
Frames: 10
Frame Time: 0.033333
-27.506371 78.865921 149.696808 -179.841012 11.323291 179.810618 -3.750853 -0.475716 11.677057 0.135358 -2.381126 -33.544148 10.779049 6.642824 29.989209 -4.657177 -6.709388 -11.441795 0.000000 0.000000 0.000000 1.572868 -1.665232 10.447503 -3.203120 11.000692 -36.197687 -0.909478 3.449461 34.758450 3.407620 5.694904 -11.334108 0.000000 0.000000 0.000000 3.856268 1.038467 -0.094272 -1.662726 -0.830903 -1.587270 -0.372331 -1.528810 11.088466 -0.047688 -0.046905 -0.001508 -0.660551 0.007446 12.827552 2.015197 -1.486931 -8.046228 0.000000 0.000000 0.000000 0.645990 0.559778 9.934075 -11.398689 -9.603305 3.020054 -59.838283 -11.009822 12.240581 -1.017953 -9.280881 9.927539 0.000000 0.000000 0.000000 -3.241857 2.111186 9.292667 28.859790 1.266924 5.055633 38.072772 14.491684 -0.309141 -4.340160 15.344587 -2.755497 0.000000 0.000000 0.000000 
-27.412455 78.854210 149.662994 -179.911185 11.268370 179.644972 -3.795758 -0.684217 11.644229 0.268429 -2.384783 -33.796425 10.405307 6.524455 29.705316 -4.824935 -6.825061 -11.520857 0.000000 0.000000 0.000000 1.599505 -1.955726 10.611626 -3.082986 10.720450 -36.043390 -0.867927 3.284047 34.984034 3.428231 5.616444 -10.910333 0.000000 0.000000 0.000000 3.866187 0.730326 0.056189 -1.740750 -0.987371 -1.630969 -0.356153 -1.512993 11.107918 -0.023340 -0.029580 0.000790 -0.673512 0.046594 12.801290 1.926625 -1.355670 -7.951428 0.000000 0.000000 0.000000 0.696197 0.702343 9.796956 -11.496208 -9.389342 3.041120 -59.777413 -10.759034 12.262065 -0.983693 -8.974550 9.942658 0.000000 0.000000 0.000000 -3.205582 2.198294 9.265995 28.873638 1.497208 5.056683 38.054191 14.765179 -0.473821 -4.208846 15.167381 -2.675531 0.000000 0.000000 0.000000 
-27.297979 78.855171 149.562164 -179.883236 11.364156 179.674806 -3.672978 -0.826125 11.726838 0.224251 -2.238397 -33.822134 10.431939 6.515514 29.755432 -4.927885 -6.751015 -11.533467 0.000000 0.000000 0.000000 1.639660 -2.156819 10.681135 -3.002816 10.767898 -35.984343 -0.847549 3.319882 34.839316 3.525303 5.640468 -11.060224 0.000000 0.000000 0.000000 3.985315 0.740178 0.140315 -1.731708 -0.778115 -1.740813 -0.348238 -1.593096 11.082171 -0.030456 -0.117479 -0.010521 -0.652564 0.006639 12.732918 1.876391 -1.473427 -8.051115 0.000000 0.000000 0.000000 0.675094 0.632488 9.812932 -11.582458 -9.302203 3.097995 -59.548048 -10.535755 12.301819 -0.935418 -8.772984 9.913232 0.000000 0.000000 0.000000 -3.204093 2.170217 9.174274 28.859342 1.647960 5.209422 37.987439 14.995909 -0.576116 -4.353492 15.044224 -2.838388 0.000000 0.000000 0.000000 
-27.239014 78.851036 149.453018 -179.883455 11.396170 179.728396 -3.580996 -0.998432 11.792334 0.129193 -2.037974 -33.836218 10.383227 6.523747 29.787821 -5.039773 -6.647199 -11.548661 0.000000 0.000000 0.000000 1.669453 -2.394066 10.727461 -3.048503 10.907883 -35.951445 -0.873440 3.290251 34.712746 3.644393 5.664293 -11.219060 0.000000 0.000000 0.000000 4.101585 0.580695 0.255101 -1.738469 -0.668652 -1.898394 -0.341040 -1.575648 11.027799 -0.015621 -0.091786 -0.016271 -0.627066 0.041849 12.691069 1.809955 -1.468335 -8.103463 0.000000 0.000000 0.000000 0.687382 0.621276 9.813312 -11.696119 -9.232408 3.103758 -59.213744 -10.354247 12.401808 -0.834734 -8.732373 9.936834 0.000000 0.000000 0.000000 -3.185445 2.139097 9.162257 28.832202 1.803809 5.205634 37.984642 15.055632 -0.950801 -4.327133 15.113824 -2.853895 0.000000 0.000000 0.000000 
-27.227036 78.835052 149.403732 -179.847009 11.445374 179.772792 -3.470477 -1.141225 11.833344 0.033246 -1.868635 -33.871342 10.363968 6.534848 29.842879 -5.147553 -6.540543 -11.589205 0.000000 0.000000 0.000000 1.690146 -2.655909 10.746186 -3.019819 10.974483 -35.903419 -0.869233 3.358861 34.582600 3.821621 5.729596 -11.332232 0.000000 0.000000 0.000000 4.268916 0.360539 0.401083 -1.651661 -0.552220 -2.067227 -0.332792 -1.577265 11.012566 -0.002690 -0.048056 -0.067997 -0.697814 -0.190832 12.651977 1.730335 -1.570236 -8.134801 0.000000 0.000000 0.000000 0.586975 0.627611 9.862198 -11.824295 -9.182076 3.128998 -58.855467 -10.192756 12.467898 -0.790408 -8.835038 9.965763 0.000000 0.000000 0.000000 -3.278698 2.108768 9.166182 28.673230 2.048137 5.324151 38.079674 14.897186 -1.060312 -4.444431 15.374549 -3.047151 0.000000 0.000000 0.000000 
-27.238155 78.805565 149.430298 -179.854276 11.498606 179.743900 -3.385442 -1.217856 11.849295 -0.101623 -1.790203 -33.868408 10.329817 6.508944 29.842165 -5.213446 -6.432086 -11.602595 0.000000 0.000000 0.000000 1.670439 -2.898857 10.690231 -2.992325 11.018812 -35.851199 -0.852493 3.410471 34.527631 4.003144 5.770871 -11.407311 0.000000 0.000000 0.000000 4.457484 0.211518 0.507895 -1.552026 -0.450235 -2.242936 -0.436248 -1.625527 11.021066 -0.014045 -0.061903 0.042324 -0.673340 -0.125253 12.580016 1.694023 -1.692110 -7.962404 0.000000 0.000000 0.000000 0.615604 0.627360 9.812623 -11.995026 -9.175493 3.123681 -58.444740 -10.076725 12.572255 -0.724109 -8.892240 10.025543 0.000000 0.000000 0.000000 -3.265479 2.082743 9.151857 28.639284 2.252376 5.475289 38.103163 14.534967 -1.157156 -4.484685 15.760720 -3.161436 0.000000 0.000000 0.000000 
-27.318069 78.774536 149.502930 -179.920146 11.878945 179.774581 -3.309687 -1.073109 11.782762 -0.276635 -1.620633 -33.848655 10.239431 6.584922 29.785086 -5.170035 -6.288366 -11.587547 0.000000 0.000000 0.000000 1.642785 -2.668071 10.535095 -3.009277 11.007228 -35.823434 -0.884628 3.496502 34.574575 4.128404 5.751503 -11.422494 0.000000 0.000000 0.000000 4.549810 0.340057 0.549970 -1.486051 -0.213981 -2.398051 -0.435756 -1.628743 11.081266 0.022356 -0.052468 -0.073535 -0.723667 -0.137956 12.658262 1.747934 -1.687934 -7.671026 0.000000 0.000000 0.000000 0.604593 0.472863 9.871464 -12.121742 -9.099377 3.044179 -58.112158 -9.990339 12.643498 -0.668181 -8.662363 10.159958 0.000000 0.000000 0.000000 -3.337781 2.001989 9.228211 28.685589 2.376979 5.584524 38.213542 14.011108 -1.154696 -4.566343 16.204911 -3.392537 0.000000 0.000000 0.000000 
-27.404783 78.760033 149.588028 -179.935091 11.889893 179.799170 -3.265919 -0.884468 11.626042 -0.433714 -1.548918 -33.799908 10.155206 6.500332 29.742718 -5.151966 -6.321632 -11.459553 0.000000 0.000000 0.000000 1.648266 -2.585510 10.399984 -2.987695 10.810290 -35.764377 -0.852973 3.675717 34.554480 4.254947 5.742543 -11.432765 0.000000 0.000000 0.000000 4.623783 0.557925 0.545446 -1.384811 -0.163606 -2.545245 -0.460864 -1.752084 11.093067 -0.007477 -0.072391 0.019216 -0.703968 -0.236387 12.599916 1.879419 -1.746738 -7.278019 0.000000 0.000000 0.000000 0.629697 0.444888 9.828496 -12.193894 -9.122247 2.984076 -57.880471 -10.107363 12.920453 -0.676674 -8.286901 10.223487 0.000000 0.000000 0.000000 -3.326056 1.871377 9.207793 28.821875 2.507195 5.680362 38.248301 13.558358 -1.301825 -4.561228 16.519866 -3.461599 0.000000 0.000000 0.000000 
-27.501673 78.770683 149.628601 -179.886419 11.792496 179.896623 -3.226541 -0.627406 11.418453 -0.539427 -1.434476 -33.770074 9.993234 6.364132 29.752027 -5.072381 -6.448795 -11.262155 0.000000 0.000000 0.000000 1.965667 -2.015652 10.317080 -3.313602 10.204657 -35.788245 -0.859350 3.504301 34.636303 4.484747 5.768567 -11.620067 0.000000 0.000000 0.000000 4.671513 0.893712 0.504226 -1.273122 -0.092568 -2.686319 -0.440259 -1.900498 11.191133 0.001403 -0.243920 -0.049330 -0.773684 -0.543941 12.699775 2.049950 -1.776005 -6.698189 0.000000 0.000000 0.000000 0.635375 0.315674 9.768881 -12.191831 -9.072195 2.918141 -57.832667 -10.260502 13.346680 -0.755237 -7.851125 10.228163 0.000000 0.000000 0.000000 -3.339470 1.794755 9.241297 29.023950 2.694193 5.783802 38.253130 13.307775 -1.445845 -4.593479 16.650927 -3.514398 0.000000 0.000000 0.000000 
-27.611185 78.774155 149.560242 -179.907087 11.626971 179.941074 -3.224260 -0.406656 11.297994 -0.650935 -1.365517 -33.796541 9.781917 6.407780 29.855320 -4.939859 -6.664821 -11.086436 0.000000 0.000000 0.000000 2.076428 -1.706225 10.237408 -3.270713 9.561570 -35.670356 -0.896668 3.809345 34.758768 4.559939 5.678336 -11.819168 0.000000 0.000000 0.000000 4.572768 1.109993 0.516304 -1.236919 -0.124132 -2.791697 -0.472106 -2.004494 11.259528 0.028984 -0.078529 0.000752 -0.748096 -0.565916 12.727258 2.435082 -1.846579 -6.053558 0.000000 0.000000 0.000000 0.616429 0.156052 9.679035 -12.137855 -9.031585 2.821087 -57.903858 -10.496578 13.873552 -0.858063 -7.597681 10.108012 0.000000 0.000000 0.000000 -3.308959 1.596000 9.193908 29.274570 2.624856 5.751111 38.339221 13.299224 -1.308769 -4.569999 16.772552 -3.484189 0.000000 0.000000 0.000000 
